# xmcd
#
# Track frame offsets:
#	182
#	18377
#	35147
#	53495
#	67757
#	85352
#	100382
#	123920
#	141902
#	158545
#	177012
#	197715
#
# Disc length: 2926 seconds
#
# Revision: 3
# Processed by: cddbd v1.5.2PL0 Copyright (c) Steve Scherf et al.
# Submitted via: EasyCDDAExtractor 15.3.0.1
#
DISCID=970b6c0c
DTITLE=Ricardo Montaner - Los Hijos Del Sol
DYEAR=1992
DGENRE=Latin
TTITLE0=Castillo Azul
TTITLE1=Vivir Con Animo
TTITLE2=Piel Adentro
TTITLE3=No Me Entregues Tu Amor
TTITLE4=Al Final Del Arco Iris
TTITLE5=Media Naranja
TTITLE6=Los Hijos Del Sol
TTITLE7=Sabor A Nada
TTITLE8=Con Amor
TTITLE9=Cuando Nacen Amores
TTITLE10=Honda
TTITLE11=A Donde Vas Mujer
EXTD=CON ESTA PRODUCCION, RICARDO DEMUESTRA QUE NO ES UN ARTISTA DE UN SOLO HI
EXTD=T.#11,12,3,1\njmd.
EXTT0=
EXTT1=
EXTT2=
EXTT3=
EXTT4=
EXTT5=
EXTT6=
EXTT7=
EXTT8=
EXTT9=
EXTT10=
EXTT11=
PLAYORDER=
